<svg width="93" height="93" viewBox="0 0 93 93" fill="none" xmlns="http://www.w3.org/2000/svg">
<g filter="url(#filter0_d_4_604)">
<circle r="20.5" transform="matrix(-1 0 0 1 46.5 32.5)" fill="white"/>
</g>
<path d="M47.5724 27.1203L47.5726 27.1201C48.9916 25.6626 51.2557 25.4562 52.754 26.7269C54.5038 28.2135 54.5974 30.8871 53.0274 32.4997L53.0273 32.4998L46.9472 38.749C46.7507 38.9509 46.4368 38.9509 46.2403 38.749L40.1604 32.5001C38.5932 30.8874 38.6868 28.2137 40.4364 26.7271C41.935 25.456 44.2021 25.6629 45.6177 27.1197L45.6183 27.1203L46.2373 27.7552L46.5953 28.1225L46.9533 27.7552L47.5724 27.1203Z" fill="#F5C518" stroke="#F5C518"/>
<defs>
<filter id="filter0_d_4_604" x="0" y="0" width="93" height="93" filterUnits="userSpaceOnUse" color-interpolation-filters="sRGB">
<feFlood flood-opacity="0" result="BackgroundImageFix"/>
<feColorMatrix in="SourceAlpha" type="matrix" values="0 0 0 0 0 0 0 0 0 0 0 0 0 0 0 0 0 0 127 0" result="hardAlpha"/>
<feOffset dy="14"/>
<feGaussianBlur stdDeviation="13"/>
<feColorMatrix type="matrix" values="0 0 0 0 0.154793 0 0 0 0 0.0515625 0 0 0 0 0.1875 0 0 0 0.25 0"/>
<feBlend mode="normal" in2="BackgroundImageFix" result="effect1_dropShadow_4_604"/>
<feBlend mode="normal" in="SourceGraphic" in2="effect1_dropShadow_4_604" result="shape"/>
</filter>
</defs>
</svg>
