<svg width="93" height="93" viewBox="0 0 93 93" fill="none" xmlns="http://www.w3.org/2000/svg">
<g filter="url(#filter0_d_4_469)">
<circle r="20.5" transform="matrix(-1 0 0 1 46.5 32.5)" fill="white"/>
</g>
<path d="M47.5728 27.1201L47.5726 27.1203L46.9536 27.7552L46.5956 28.1225L46.2375 27.7552L45.6185 27.1203L45.618 27.1197C44.2024 25.6629 41.9354 25.456 40.4368 26.7269L47.5728 27.1201ZM47.5728 27.1201C48.9919 25.6626 51.2559 25.4562 52.7543 26.7269C54.504 28.2135 54.5976 30.8871 53.0277 32.4997L53.0276 32.4998M47.5728 27.1201L53.0276 32.4998M53.0276 32.4998L46.9474 38.749C46.9474 38.7491 46.9474 38.7491 46.9473 38.7491C46.7509 38.9508 46.4371 38.9508 46.2406 38.7491C46.2406 38.7491 46.2406 38.7491 46.2405 38.749L40.1606 32.5001M53.0276 32.4998L40.1606 32.5001M40.1606 32.5001C38.5935 30.8874 38.6871 28.2136 40.4368 26.727L40.1606 32.5001Z" stroke="#F5C518"/>
<defs>
<filter id="filter0_d_4_469" x="0" y="0" width="93" height="93" filterUnits="userSpaceOnUse" color-interpolation-filters="sRGB">
<feFlood flood-opacity="0" result="BackgroundImageFix"/>
<feColorMatrix in="SourceAlpha" type="matrix" values="0 0 0 0 0 0 0 0 0 0 0 0 0 0 0 0 0 0 127 0" result="hardAlpha"/>
<feOffset dy="14"/>
<feGaussianBlur stdDeviation="13"/>
<feColorMatrix type="matrix" values="0 0 0 0 0.154793 0 0 0 0 0.0515625 0 0 0 0 0.1875 0 0 0 0.25 0"/>
<feBlend mode="normal" in2="BackgroundImageFix" result="effect1_dropShadow_4_469"/>
<feBlend mode="normal" in="SourceGraphic" in2="effect1_dropShadow_4_469" result="shape"/>
</filter>
</defs>
</svg>
